<svg xmlns="http://www.w3.org/2000/svg" width="1200" height="854" viewBox="0 0 1200 854">
<style>text{font-family:-apple-system,BlinkMacSystemFont,Segoe UI,Arial,sans-serif;fill:#24292f}.t{font-size:24px;font-weight:600}.l{font-size:14px}.v{font-size:12px}.a{font-size:14px}.grid{stroke:#d0d7de;stroke-width:1}.ref{stroke:#cf222e;stroke-width:1.5;stroke-dasharray:5 4}</style>
<rect width="100%" height="100%" fill="white"/><text class="t" x="600" y="32" text-anchor="middle">Clean compile / build time</text><text class="l" x="248" y="91" text-anchor="end">Chez Scheme</text><rect x="260" y="77" width="25.941527678400348" height="20" rx="2" fill="#0969da" opacity="0.78"/><text class="v" x="292.94152767840035" y="92">0.077 s</text><text class="l" x="248" y="125" text-anchor="end">TypeScript</text><rect x="260" y="111" width="57.312078890373584" height="20" rx="2" fill="#0969da" opacity="0.78"/><text class="v" x="324.3120788903736" y="126">0.101 s</text><text class="l" x="248" y="159" text-anchor="end">C (GCC)</text><rect x="260" y="145" width="269.0542519511923" height="20" rx="2" fill="#0969da" opacity="0.78"/><text class="v" x="536.0542519511923" y="160">0.627 s</text><text class="l" x="248" y="193" text-anchor="end">C++ (GCC)</text><rect x="260" y="179" width="277.71082084909244" height="20" rx="2" fill="#0969da" opacity="0.78"/><text class="v" x="544.7108208490924" y="194">0.676 s</text><text class="l" x="248" y="227" text-anchor="end">Java</text><rect x="260" y="213" width="302.944851029383" height="20" rx="2" fill="#0969da" opacity="0.78"/><text class="v" x="569.944851029383" y="228">0.839 s</text><text class="l" x="248" y="261" text-anchor="end">Common Lisp (SBCL)</text><rect x="260" y="247" width="321.9786679885167" height="20" rx="2" fill="#0969da" opacity="0.78"/><text class="v" x="588.9786679885167" y="262">0.989 s</text><text class="l" x="248" y="295" text-anchor="end">Racket</text><rect x="260" y="281" width="394.04571084532085" height="20" rx="2" fill="#0969da" opacity="0.78"/><text class="v" x="661.0457108453209" y="296">1.84 s</text><text class="l" x="248" y="329" text-anchor="end">Cython</text><rect x="260" y="315" width="435.66953413037743" height="20" rx="2" fill="#0969da" opacity="0.78"/><text class="v" x="702.6695341303774" y="330">2.63 s</text><text class="l" x="248" y="363" text-anchor="end">Gambit Scheme</text><rect x="260" y="349" width="440.14241645978177" height="20" rx="2" fill="#0969da" opacity="0.78"/><text class="v" x="707.1424164597818" y="364">2.73 s</text><text class="l" x="248" y="397" text-anchor="end">Mojo</text><rect x="260" y="383" width="448.8275434375" height="20" rx="2" fill="#0969da" opacity="0.78"/><text class="v" x="715.8275434375" y="398">2.94 s</text><text class="l" x="248" y="431" text-anchor="end">Swift</text><rect x="260" y="417" width="450.7462091238824" height="20" rx="2" fill="#0969da" opacity="0.78"/><text class="v" x="717.7462091238824" y="432">2.99 s</text><text class="l" x="248" y="465" text-anchor="end">Nim</text><rect x="260" y="451" width="480.15889985148897" height="20" rx="2" fill="#0969da" opacity="0.78"/><text class="v" x="747.158899851489" y="466">3.85 s</text><text class="l" x="248" y="499" text-anchor="end">Go</text><rect x="260" y="485" width="488.97182039591223" height="20" rx="2" fill="#0969da" opacity="0.78"/><text class="v" x="755.9718203959122" y="500">4.16 s</text><text class="l" x="248" y="533" text-anchor="end">Rust</text><rect x="260" y="519" width="510.9649093437506" height="20" rx="2" fill="#0969da" opacity="0.78"/><text class="v" x="777.9649093437506" y="534">5.02 s</text><text class="l" x="248" y="567" text-anchor="end">Scala 3</text><rect x="260" y="553" width="521.0277519744006" height="20" rx="2" fill="#0969da" opacity="0.78"/><text class="v" x="788.0277519744006" y="568">5.48 s</text><text class="l" x="248" y="601" text-anchor="end">nanobind</text><rect x="260" y="587" width="595.3927808709883" height="20" rx="2" fill="#0969da" opacity="0.78"/><text class="v" x="862.3927808709883" y="602">10.39 s</text><text class="l" x="248" y="635" text-anchor="end">PyO3</text><rect x="260" y="621" width="634.3195643614532" height="20" rx="2" fill="#0969da" opacity="0.78"/><text class="v" x="901.3195643614532" y="636">14.52 s</text><text class="l" x="248" y="669" text-anchor="end">Haskell (GHC)</text><rect x="260" y="655" width="649.946931514209" height="20" rx="2" fill="#0969da" opacity="0.78"/><text class="v" x="916.946931514209" y="670">16.61 s</text><text class="l" x="248" y="703" text-anchor="end">Gerbil Scheme</text><rect x="260" y="689" width="787.024350402839" height="20" rx="2" fill="#0969da" opacity="0.78"/><text class="v" x="1054.024350402839" y="704">54.00 s</text><text class="l" x="248" y="737" text-anchor="end">Zig</text><rect x="260" y="723" width="815.7916032821388" height="20" rx="2" fill="#0969da" opacity="0.78"/><text class="v" x="1082.7916032821388" y="738">69.16 s</text><text class="l" x="248" y="771" text-anchor="end">JavaScript (Node.js)</text><text class="v" x="268" y="771">N/A</text><line class="grid" x1="260" y1="789" x2="1090" y2="789"/><text class="a" x="675" y="836" text-anchor="middle">Seconds, logarithmic scale (lower is better)</text></svg>