<svg xmlns="http://www.w3.org/2000/svg" width="1200" height="854" viewBox="0 0 1200 854">
<style>text{font-family:-apple-system,BlinkMacSystemFont,Segoe UI,Arial,sans-serif;fill:#24292f}.t{font-size:24px;font-weight:600}.l{font-size:14px}.v{font-size:12px}.a{font-size:14px}.grid{stroke:#d0d7de;stroke-width:1}.ref{stroke:#cf222e;stroke-width:1.5;stroke-dasharray:5 4}</style>
<rect width="100%" height="100%" fill="white"/><text class="t" x="600" y="32" text-anchor="middle">Peak memory usage</text><text class="l" x="248" y="91" text-anchor="end">C (GCC)</text><rect x="260" y="77" width="42.23391121280093" height="20" rx="2" fill="#0969da" opacity="0.78"/><text class="v" x="309.23391121280093" y="92">39.7 MiB</text><text class="l" x="248" y="125" text-anchor="end">Zig</text><rect x="260" y="111" width="42.88409357448904" height="20" rx="2" fill="#0969da" opacity="0.78"/><text class="v" x="309.88409357448904" y="126">39.9 MiB</text><text class="l" x="248" y="159" text-anchor="end">Rust</text><rect x="260" y="145" width="43.143542414786396" height="20" rx="2" fill="#0969da" opacity="0.78"/><text class="v" x="310.1435424147864" y="160">39.9 MiB</text><text class="l" x="248" y="193" text-anchor="end">C++ (GCC)</text><rect x="260" y="179" width="50.96166932766806" height="20" rx="2" fill="#0969da" opacity="0.78"/><text class="v" x="317.96166932766806" y="194">41.6 MiB</text><text class="l" x="248" y="227" text-anchor="end">Go</text><rect x="260" y="213" width="52.642331905318656" height="20" rx="2" fill="#0969da" opacity="0.78"/><text class="v" x="319.64233190531866" y="228">42.0 MiB</text><text class="l" x="248" y="261" text-anchor="end">PyO3</text><rect x="260" y="247" width="74.02072024940753" height="20" rx="2" fill="#0969da" opacity="0.78"/><text class="v" x="341.02072024940753" y="262">47.0 MiB</text><text class="l" x="248" y="295" text-anchor="end">Cython</text><rect x="260" y="281" width="76.45908846143027" height="20" rx="2" fill="#0969da" opacity="0.78"/><text class="v" x="343.45908846143027" y="296">47.6 MiB</text><text class="l" x="248" y="329" text-anchor="end">Nim</text><rect x="260" y="315" width="233.72286439585895" height="20" rx="2" fill="#0969da" opacity="0.78"/><text class="v" x="500.72286439585895" y="330">109.3 MiB</text><text class="l" x="248" y="363" text-anchor="end">Common Lisp (SBCL)</text><rect x="260" y="349" width="246.9883726862995" height="20" rx="2" fill="#0969da" opacity="0.78"/><text class="v" x="513.9883726862995" y="364">117.2 MiB</text><text class="l" x="248" y="397" text-anchor="end">nanobind</text><rect x="260" y="383" width="248.15174743918067" height="20" rx="2" fill="#0969da" opacity="0.78"/><text class="v" x="515.1517474391807" y="398">117.9 MiB</text><text class="l" x="248" y="431" text-anchor="end">Mojo</text><rect x="260" y="417" width="256.26333087323655" height="20" rx="2" fill="#0969da" opacity="0.78"/><text class="v" x="523.2633308732366" y="432">123.1 MiB</text><text class="l" x="248" y="465" text-anchor="end">Swift</text><rect x="260" y="451" width="258.0269226637091" height="20" rx="2" fill="#0969da" opacity="0.78"/><text class="v" x="525.0269226637091" y="466">124.2 MiB</text><text class="l" x="248" y="499" text-anchor="end">Chez Scheme</text><rect x="260" y="485" width="268.1808597172794" height="20" rx="2" fill="#0969da" opacity="0.78"/><text class="v" x="535.1808597172794" y="500">131.1 MiB</text><text class="l" x="248" y="533" text-anchor="end">Gerbil Scheme</text><rect x="260" y="519" width="287.5839964490349" height="20" rx="2" fill="#0969da" opacity="0.78"/><text class="v" x="554.5839964490349" y="534">145.2 MiB</text><text class="l" x="248" y="567" text-anchor="end">Gambit Scheme</text><rect x="260" y="553" width="288.9836957684943" height="20" rx="2" fill="#0969da" opacity="0.78"/><text class="v" x="555.9836957684943" y="568">146.3 MiB</text><text class="l" x="248" y="601" text-anchor="end">TypeScript</text><rect x="260" y="587" width="314.8912108854024" height="20" rx="2" fill="#0969da" opacity="0.78"/><text class="v" x="581.8912108854024" y="602">167.8 MiB</text><text class="l" x="248" y="635" text-anchor="end">JavaScript (Node.js)</text><rect x="260" y="621" width="315.08498853570165" height="20" rx="2" fill="#0969da" opacity="0.78"/><text class="v" x="582.0849885357017" y="636">168.0 MiB</text><text class="l" x="248" y="669" text-anchor="end">Racket</text><rect x="260" y="655" width="424.49753526077507" height="20" rx="2" fill="#0969da" opacity="0.78"/><text class="v" x="691.4975352607751" y="670">299.4 MiB</text><text class="l" x="248" y="703" text-anchor="end">Java</text><rect x="260" y="689" width="465.42066851546883" height="20" rx="2" fill="#0969da" opacity="0.78"/><text class="v" x="732.4206685154688" y="704">371.7 MiB</text><text class="l" x="248" y="737" text-anchor="end">Scala 3</text><rect x="260" y="723" width="609.3275355275272" height="20" rx="2" fill="#0969da" opacity="0.78"/><text class="v" x="876.3275355275272" y="738">795.0 MiB</text><text class="l" x="248" y="771" text-anchor="end">Haskell (GHC)</text><rect x="260" y="757" width="806.8681253896225" height="20" rx="2" fill="#0969da" opacity="0.78"/><text class="v" x="1073.8681253896225" y="772">2257.6 MiB</text><line class="grid" x1="260" y1="789" x2="1090" y2="789"/><text class="a" x="675" y="836" text-anchor="middle">Maximum RSS across primary workloads, MiB (lower is better)</text></svg>