<svg xmlns="http://www.w3.org/2000/svg" width="1120" height="818" viewBox="0 0 1120 818"><style>text{font-family:-apple-system,BlinkMacSystemFont,Segoe UI,Arial,sans-serif;fill:#24292f}.t{font-size:22px;font-weight:600}.l{font-size:13px}.v{font-size:12px}</style><rect width="100%" height="100%" fill="white"/><text class="t" x="560.0" y="30" text-anchor="middle">Intermediate artifact size</text><text class="l" x="238" y="74" text-anchor="end">Go</text><rect x="250" y="62" width="2.00" height="17" fill="#2f81f7" opacity=".78"/><text class="v" x="259.00" y="75">0 B</text><text class="l" x="238" y="105" text-anchor="end">Mojo</text><rect x="250" y="93" width="2.00" height="17" fill="#2f81f7" opacity=".78"/><text class="v" x="259.00" y="106">0 B</text><text class="l" x="238" y="136" text-anchor="end">V</text><rect x="250" y="124" width="2.00" height="17" fill="#2f81f7" opacity=".78"/><text class="v" x="259.00" y="137">0 B</text><text class="l" x="238" y="167" text-anchor="end">JavaScript (Node.js)</text><rect x="250" y="155" width="2.00" height="17" fill="#2f81f7" opacity=".78"/><text class="v" x="259.00" y="168">0 B</text><text class="l" x="238" y="198" text-anchor="end">Common Lisp (SBCL)</text><rect x="250" y="186" width="2.00" height="17" fill="#2f81f7" opacity=".78"/><text class="v" x="259.00" y="199">0 B</text><text class="l" x="238" y="229" text-anchor="end">Gambit Scheme</text><rect x="250" y="217" width="2.00" height="17" fill="#2f81f7" opacity=".78"/><text class="v" x="259.00" y="230">0 B</text><text class="l" x="238" y="260" text-anchor="end">Java</text><rect x="250" y="248" width="2.00" height="17" fill="#2f81f7" opacity=".78"/><text class="v" x="259.00" y="261">14.2 KiB</text><text class="l" x="238" y="291" text-anchor="end">Scala 3</text><rect x="250" y="279" width="2.00" height="17" fill="#2f81f7" opacity=".78"/><text class="v" x="259.00" y="292">15.9 KiB</text><text class="l" x="238" y="322" text-anchor="end">TypeScript</text><rect x="250" y="310" width="2.00" height="17" fill="#2f81f7" opacity=".78"/><text class="v" x="259.00" y="323">18.4 KiB</text><text class="l" x="238" y="353" text-anchor="end">Chez Scheme</text><rect x="250" y="341" width="2.00" height="17" fill="#2f81f7" opacity=".78"/><text class="v" x="259.00" y="354">32.8 KiB</text><text class="l" x="238" y="384" text-anchor="end">Racket</text><rect x="250" y="372" width="2.28" height="17" fill="#2f81f7" opacity=".78"/><text class="v" x="259.28" y="385">79.0 KiB</text><text class="l" x="238" y="415" text-anchor="end">C (GCC)</text><rect x="250" y="403" width="2.54" height="17" fill="#2f81f7" opacity=".78"/><text class="v" x="259.54" y="416">87.9 KiB</text><text class="l" x="238" y="446" text-anchor="end">C++ (GCC)</text><rect x="250" y="434" width="2.58" height="17" fill="#2f81f7" opacity=".78"/><text class="v" x="259.58" y="447">89.3 KiB</text><text class="l" x="238" y="477" text-anchor="end">Swift</text><rect x="250" y="465" width="3.01" height="17" fill="#2f81f7" opacity=".78"/><text class="v" x="260.01" y="478">104.5 KiB</text><text class="l" x="238" y="508" text-anchor="end">Gerbil Scheme</text><rect x="250" y="496" width="5.57" height="17" fill="#2f81f7" opacity=".78"/><text class="v" x="262.57" y="509">193.2 KiB</text><text class="l" x="238" y="539" text-anchor="end">Haskell (GHC)</text><rect x="250" y="527" width="6.68" height="17" fill="#2f81f7" opacity=".78"/><text class="v" x="263.68" y="540">231.7 KiB</text><text class="l" x="238" y="570" text-anchor="end">PyO3</text><rect x="250" y="558" width="6.89" height="17" fill="#2f81f7" opacity=".78"/><text class="v" x="263.89" y="571">239.0 KiB</text><text class="l" x="238" y="601" text-anchor="end">Cython</text><rect x="250" y="589" width="24.11" height="17" fill="#2f81f7" opacity=".78"/><text class="v" x="281.11" y="602">835.6 KiB</text><text class="l" x="238" y="632" text-anchor="end">Nim</text><rect x="250" y="620" width="32.90" height="17" fill="#2f81f7" opacity=".78"/><text class="v" x="289.90" y="633">1.1 MiB</text><text class="l" x="238" y="663" text-anchor="end">nanobind</text><rect x="250" y="651" width="49.40" height="17" fill="#2f81f7" opacity=".78"/><text class="v" x="306.40" y="664">1.7 MiB</text><text class="l" x="238" y="694" text-anchor="end">C3</text><rect x="250" y="682" width="107.45" height="17" fill="#2f81f7" opacity=".78"/><text class="v" x="364.45" y="695">3.6 MiB</text><text class="l" x="238" y="725" text-anchor="end">Rust</text><rect x="250" y="713" width="108.89" height="17" fill="#2f81f7" opacity=".78"/><text class="v" x="365.89" y="726">3.7 MiB</text><text class="l" x="238" y="756" text-anchor="end">Zig</text><rect x="250" y="744" width="730.00" height="17" fill="#2f81f7" opacity=".78"/><text class="v" x="987.00" y="757">24.7 MiB</text></svg>