<svg xmlns="http://www.w3.org/2000/svg" width="1120" height="818" viewBox="0 0 1120 818"><style>text{font-family:-apple-system,BlinkMacSystemFont,Segoe UI,Arial,sans-serif;fill:#24292f}.t{font-size:22px;font-weight:600}.l{font-size:13px}.v{font-size:12px}</style><rect width="100%" height="100%" fill="white"/><text class="t" x="560.0" y="30" text-anchor="middle">Peak runtime RSS</text><text class="l" x="238" y="74" text-anchor="end">C (GCC)</text><rect x="250" y="62" width="64.67" height="17" fill="#2f81f7" opacity=".78"/><text class="v" x="321.67" y="75">92.8 MiB</text><text class="l" x="238" y="105" text-anchor="end">C3</text><rect x="250" y="93" width="64.82" height="17" fill="#2f81f7" opacity=".78"/><text class="v" x="321.82" y="106">93.1 MiB</text><text class="l" x="238" y="136" text-anchor="end">Zig</text><rect x="250" y="124" width="65.01" height="17" fill="#2f81f7" opacity=".78"/><text class="v" x="322.01" y="137">93.3 MiB</text><text class="l" x="238" y="167" text-anchor="end">Rust</text><rect x="250" y="155" width="65.21" height="17" fill="#2f81f7" opacity=".78"/><text class="v" x="322.21" y="168">93.6 MiB</text><text class="l" x="238" y="198" text-anchor="end">C++ (GCC)</text><rect x="250" y="186" width="66.04" height="17" fill="#2f81f7" opacity=".78"/><text class="v" x="323.04" y="199">94.8 MiB</text><text class="l" x="238" y="229" text-anchor="end">Cython</text><rect x="250" y="217" width="70.49" height="17" fill="#2f81f7" opacity=".78"/><text class="v" x="327.49" y="230">101.2 MiB</text><text class="l" x="238" y="260" text-anchor="end">PyO3</text><rect x="250" y="248" width="70.71" height="17" fill="#2f81f7" opacity=".78"/><text class="v" x="327.71" y="261">101.5 MiB</text><text class="l" x="238" y="291" text-anchor="end">nanobind</text><rect x="250" y="279" width="71.68" height="17" fill="#2f81f7" opacity=".78"/><text class="v" x="328.68" y="292">102.9 MiB</text><text class="l" x="238" y="322" text-anchor="end">Nim</text><rect x="250" y="310" width="77.35" height="17" fill="#2f81f7" opacity=".78"/><text class="v" x="334.35" y="323">111.0 MiB</text><text class="l" x="238" y="353" text-anchor="end">Swift</text><rect x="250" y="341" width="85.31" height="17" fill="#2f81f7" opacity=".78"/><text class="v" x="342.31" y="354">122.4 MiB</text><text class="l" x="238" y="384" text-anchor="end">V</text><rect x="250" y="372" width="85.71" height="17" fill="#2f81f7" opacity=".78"/><text class="v" x="342.71" y="385">123.0 MiB</text><text class="l" x="238" y="415" text-anchor="end">Mojo</text><rect x="250" y="403" width="85.85" height="17" fill="#2f81f7" opacity=".78"/><text class="v" x="342.85" y="416">123.2 MiB</text><text class="l" x="238" y="446" text-anchor="end">Go</text><rect x="250" y="434" width="89.50" height="17" fill="#2f81f7" opacity=".78"/><text class="v" x="346.50" y="447">128.5 MiB</text><text class="l" x="238" y="477" text-anchor="end">Common Lisp (SBCL)</text><rect x="250" y="465" width="126.52" height="17" fill="#2f81f7" opacity=".78"/><text class="v" x="383.52" y="478">181.6 MiB</text><text class="l" x="238" y="508" text-anchor="end">Haskell (GHC)</text><rect x="250" y="496" width="148.11" height="17" fill="#2f81f7" opacity=".78"/><text class="v" x="405.11" y="509">212.6 MiB</text><text class="l" x="238" y="539" text-anchor="end">Java</text><rect x="250" y="527" width="177.95" height="17" fill="#2f81f7" opacity=".78"/><text class="v" x="434.95" y="540">255.4 MiB</text><text class="l" x="238" y="570" text-anchor="end">Gerbil Scheme</text><rect x="250" y="558" width="239.41" height="17" fill="#2f81f7" opacity=".78"/><text class="v" x="496.41" y="571">343.7 MiB</text><text class="l" x="238" y="601" text-anchor="end">Gambit Scheme</text><rect x="250" y="589" width="280.81" height="17" fill="#2f81f7" opacity=".78"/><text class="v" x="537.81" y="602">403.1 MiB</text><text class="l" x="238" y="632" text-anchor="end">JavaScript (Node.js)</text><rect x="250" y="620" width="307.34" height="17" fill="#2f81f7" opacity=".78"/><text class="v" x="564.34" y="633">441.2 MiB</text><text class="l" x="238" y="663" text-anchor="end">TypeScript</text><rect x="250" y="651" width="311.51" height="17" fill="#2f81f7" opacity=".78"/><text class="v" x="568.51" y="664">447.1 MiB</text><text class="l" x="238" y="694" text-anchor="end">Chez Scheme</text><rect x="250" y="682" width="317.93" height="17" fill="#2f81f7" opacity=".78"/><text class="v" x="574.93" y="695">456.4 MiB</text><text class="l" x="238" y="725" text-anchor="end">Racket</text><rect x="250" y="713" width="388.56" height="17" fill="#2f81f7" opacity=".78"/><text class="v" x="645.56" y="726">557.8 MiB</text><text class="l" x="238" y="756" text-anchor="end">Scala 3</text><rect x="250" y="744" width="730.00" height="17" fill="#2f81f7" opacity=".78"/><text class="v" x="987.00" y="757">1047.9 MiB</text></svg>